<svg xmlns="http://www.w3.org/2000/svg" viewBox="0 0 491.9 469.5"><style>.st0{fill:#4a4a4a}</style><path class="st0" d="M311.1 432.5c-11.7 2.9-23.3 5.9-36.4 9.1 23.4 4.3 41.3 17.9 61.6 26.4-.2.5-.3 1-.5 1.5-7.6-.4-15.2-.2-22.7-1.4-11.8-1.9-23.5-4.5-35.1-7.1-9.2-2.1-15.5-8.7-22-15-4.9-4.7-16.1-4.5-20.5.5-6.1 7.2-13.7 11.8-22.6 15-17.7 6.4-36.1 7.1-54.5 7.4-.2-.5-.4-.9-.6-1.4 9.3-4.7 18.6-9.6 28-14 9.6-4.5 19.4-8.6 28.3-12.6-7.9-1.9-16.8-4.1-25.8-6.2-1-.2-2.6.2-3.3 1-8.2 9-19 11.8-30.6 12.7-11.6.9-22.9-.7-34-4-7.9-2.4-15.9-4.8-23.9-8.2 12.3-2.3 24.5-4.7 36.8-6.9 12.4-2.2 24.8-2.2 37.4-.4-6.4-3.1-12.9-6-19.2-9.4-6.3-3.4-12.4-7.1-18-10.4-1.1 1.1-1.9 2.6-3.1 3.1-10.9 4.6-22 4.5-33.3 1.7-19.2-4.7-34.1-16.8-49.2-29 23.8 2.2 48.3 0 70.1 13.1-7.2-7-14.8-13.5-21.4-21-4.5-5.1-8.5-7.2-15.8-6.6-10.7.9-21-2.8-29.9-9.4-10.3-7.6-19.1-16.6-26.6-26.9-2.7-3.7-5.7-7.2-9.4-11.7 20.9 5.8 41 10.1 57.4 23.9-3-5.4-6.6-10.5-8.9-16.2-3.6-8.8-8.5-14.4-18.6-16.8-11.1-2.6-19.7-10.7-25.4-20.6-7-12.3-13.1-25.1-19.5-37.6-.2-.4-.1-.9-.2-2.7 16.2 11 33.3 19.3 45.9 34.3-1.8-9.6-3.5-18.9-5.3-28.2-.2-.8-1-1.8-1.8-2.1-18.6-7.8-26.3-23.6-30.3-41.9-2-8.9-3.4-17.9-5.2-27.3 16.5 9.4 25.8 24.4 34.7 41.3.7-11.5 1.4-21.7 2-32.1-12-5-17.1-15.4-17.7-27.9-.7-14.5-.2-29.1.7-43.7 10.7 13.6 19.9 27.7 22.6 45.7 3.6-10.5 6.9-20.2 10.4-30.4-.9.5-1.7 1-2.8 1.7-7.3-9.5-11-20.3-8.6-32.1 2.8-13.4 6.9-26.6 11.2-39.8 6.9 16.7 12.9 33.3 8.8 51.7 7.2-10.8 14.4-21.7 21.8-32.9-2.6 2.1-4.8 4-7.1 5.8-11-13-1.5-41.9 21-64 3.1 17.2 2.4 33.5-6.3 48.8.5.3.9.6 1.4.9 6.5-7.7 13.1-15.4 20.1-23.8-2.8-5.5-1.3-12.8 2.3-19.9 4.5-8.8 11.5-15.4 19.5-21 4.6-3.2 9.3-6.1 15.2-9.9-3 14-5.9 26.3-13.8 36.9 6.2-4 12.5-7.9 18.7-12 1-.6 1.6-2.1 1.9-3.3 2.3-9 8.2-14.8 16.7-17.8 9.3-3.4 18.5-6.1 29-9.4-1.1 2.6-1.4 4.4-2.4 5.6-6.8 7.3-13.4 14.8-20.6 21.6-4.8 4.5-11.2 6.2-17.8 7-3.2.4-6.5 1.8-9.3 3.5-4.2 2.6-7.9 5.9-13 9.8 19.3-4.2 36.1-.4 52.2 7.2V56c-4.1.3-8.2.7-12.2 1-12.4 1.1-24.8 2.4-37.3 3.2-3.7.2-7.8-.2-11.3-1.5-4.1-1.5-6.9-.3-9.8 2.3-4 3.5-8.1 6.9-12 10.8 14.5-5.1 29.2-5.1 44.6-3.5-.8 1.4-.9 2.1-1.2 2.2-15.2 6.2-29.1 15.5-45.7 18.3-3.1.5-6.3 1.3-9.4 1-4.7-.4-7.8 1.4-10.3 5.3-3.7 5.6-7.8 11-11.4 16.9 13.6-9.8 28.5-15.9 45.5-17.8-.3 1.2-.2 1.8-.5 2-14.9 12-28.3 25.9-45.7 34.5-2.1 1-4.2 2.6-6.3 2.8-5.7.5-7.5 4.5-9.2 9-2.4 6.7-5 13.3-7 20.4 10.6-16.3 27.3-23.9 43.7-32.5.1.9.3 1.3.2 1.5-9.1 12.7-17.9 25.6-27.5 38-5.8 7.4-12.5 14.3-21.6 17.9-.9.3-1.6 2.1-1.7 3.2-1.4 12.4-2.6 24.8-3 37.5 3.2-23.1 18.7-37.6 36.1-52.7-1.5 5.2-2.6 9-3.7 12.8-1.2 3.8-2.5 7.6-3.5 11.5-4.3 16.4-12 31-23.1 43.8-1 1.1-2.6 1.8-3.9 2.6l-1.8-.9c2.3 13.1 4.5 26.2 6.8 39.2.5 0 1.1 0 1.6-.1-2.3-22.8 10-39.7 21.6-57 .5.1 1.1.2 1.6.3-.3 7.3-.5 14.7-1.1 22-.7 9.5-1 19.1-3 28.3-1.7 7.5-5.7 14.4-8.7 21.5-.9 2-2 4-3 5.9-.8-.4-1.6-.9-2.4-1.3 5.6 11.4 11.2 22.9 16.7 34.3l1.5-.3c-6-21.3-.1-41.1 6.7-60.8.5 0 .9 0 1.4-.1 3.3 18 7.3 35.8 9.7 53.9 1.2 8.8-.9 17.9-5.6 26.7 6.2 7 12.6 14.3 19 21.5-6.1-17.2-3.1-34.6-3.1-52.9 1.1 1.7 1.8 2.4 2.2 3.3 6.3 11.4 13 22.5 18.6 34.2 4.7 10 7.4 20.7 5.3 32-.2 1.1.3 2.8 1.1 3.4 7.1 4.8 14.3 9.4 21.9 13.7-9.5-13.6-13.2-29-15.9-45.4 1.1.6 1.8.8 2.2 1.3 9.8 10 19.7 19.9 29.3 30.1 6.4 6.8 11.3 14.4 11.5 24.2 0 .9.9 2.4 1.6 2.6 7.7 2.4 15.4 4.6 23.3 6.4-19.4-21.2-22.8-25.9-24.7-35.6 12.3 5.4 24.6 10.3 36.4 16 8.3 4.1 13.1 11.6 16.1 20.3.8 2.3 1.8 3.5 4.5 3.5 7.6-.2 15.3-.1 21.9-.1 1.1-3.4 1.5-6.2 2.9-8.4 5.6-9.1 12.9-16.4 23.3-20.2 8.8-3.2 17.5-6.9 27-10.7-4 14.3-13.4 24.2-22.9 34.8 6.9-2.1 13.9-4.2 20.8-6.4.7-.2 1.5-1.3 1.6-2.1 1-12.1 8.2-20.9 15.9-29.3 8.3-9 16.9-17.8 26.2-26.1-.3 16.1-5.2 30.3-14.1 43.2l.9.9c6.7-4.5 13.4-8.9 20-13.5.9-.6 1.4-2.2 1.5-3.4.3-3.3.4-6.6.5-10 .4-11.4 3.5-21.8 9.9-31.5 5.6-8.4 10.1-17.5 15.6-26.9 2.4 16.6 2 32.3-1.7 48 .4.2.7.5 1.1.7 5-6 10.1-12 15.1-18.2.5-.6.4-2 0-2.8-6.4-14.6-4.3-29.3-.9-44.1 2.4-10.6 4.7-21.3 7.7-32 7.6 17.4 11.2 35.5 8.1 54.8.5.1 1 .3 1.5.4 4.3-9.4 8.6-18.8 12.8-28.3.3-.7.1-2-.4-2.7-10.9-13.5-12.7-29.7-13.6-46.1-.6-9.9-1.1-19.8-1.6-30.8 9.1 10.6 24.5 35.1 24.8 50.9 1.2-7 2.2-14.1 3.7-21 1.4-6.1-.2-10.6-4.6-15.4-13.1-14.4-18.7-32.8-24.4-50.9-1.4-4.6-2.6-9.2-3.6-14 13.2 14 30.8 24.7 33.3 46.5.4-.2.9-.4 1.3-.6-1.2-10.2-2.2-20.4-3.6-30.6-.2-1.6-1.7-3.6-3.1-4.5-11.6-7.8-21.4-17.3-28.4-29.7-4-7-9.3-13.3-14.1-19.9-1.2-1.6-2.4-3.1-3.3-5 15.5 5.6 29.3 13.6 39.8 26.7.4-.3.8-.5 1.2-.8l-9-21.9c-.2-.5-.9-1.1-1.4-1.3-16.6-5-28.9-16.8-41.9-27.3-4.8-3.9-9.5-8-14.9-12.5 9.6-.7 25.5 4.7 43.1 13.6-4.3-5.7-8.6-11.5-13.1-17.1-.8-1-3-1.4-4.6-1.4-13-.2-24.7-4.7-36.2-10.2-6.9-3.3-13.8-6.4-20.6-10.2 14.2-3.1 28.2-2 42.5 1.3-4.7-3.9-9.4-7.9-14.2-11.6-.9-.7-2.7-.6-4.1-.4-20.8 3.5-41.1-.8-62-2.9 6.2-6.6 30.7-11.4 46.5-9.5-3-4-15.5-12-20.2-12.8-8.1-1.5-15.3-4.9-20.8-11-6-6.7-11.6-13.8-16.8-21.5 13.8 4.1 29 4.4 39.2 15.8 3.2 3.6 4.6 8.9 6.9 13.4.7 1.3 1.4 3 2.6 3.7 6.7 3.9 13.6 7.6 20.8 11.2-10.5-10.5-14-23.9-17-39.1 3.6 2.1 6.5 3.3 8.8 5.3 7.8 6.9 15.6 13.9 22.9 21.4 5 5.1 6.3 12.1 5.5 19.1-.2 2.3-1.6 4.5-2.6 7.3 37.3 31.7 61.7 72.4 73.2 121.2-3.5-22.6 10.1-38.5 20.8-55.5 1.8 16.3 4.2 32.4.8 48.6-1.8 8.5-5.3 16.2-12.8 21.2-1.7 1.1-4.1 1.3-6.2 1.9.6 10.9 1.4 23 2 33.6 4.6-6.9 9.4-15.3 15.4-22.7 6.1-7.5 13.5-14 21.4-20.4-1.2 6.4-2.5 12.8-3.7 19.2-2.6 14.2-5.9 28.1-15.9 39.2-5.1 5.6-11.2 9.8-18.9 11.6-2.3 10.8-4.6 21.8-7.2 34.2 12.4-18.2 30.9-26.3 48.1-36.6-.6 1.5-1 3-1.7 4.4-5.6 11-10.9 22.1-16.9 32.9-7.2 13-19 20.2-32.8 24.4-1.7.5-3.8.1-5.8.1-6.3 11.6-13 23.6-19.9 36.3 17.2-17.7 38.9-24.8 62.3-29.5-12.7 14.6-22.5 31.1-39.8 40.4-9.3 5-19.1 7.8-29.6 7-1.5-.1-2.8-1.7-3.9-2.4-12 11.2-25 23.3-37.9 35.4l.2-.2c-2.8 1.7-5.5 3.6-8.4 5.2-13.4 7.1-26.9 14.1-40.3 21.1-1.4.7-2.7 1.7-4 2.6-1.2.1-2 .2-2.8.3z"/><path class="st0" d="M98 167.7h6.8c6.4 20.7 16.5 39.6 28 57.8 5.3 8.4 11.7 16.2 17.7 24.1 1.3 1.7 3.2 3 4.9 4.1 3.1 2 5.6 1.2 6.3-2.5 3.9-20.2 18.5-27.7 36.6-30.6 15.1-2.5 30.2-.6 45.3.9 6.9.7 14.1-.8 21.2-1.5 15.1-1.3 30-1.1 44.3 4.5 12.5 4.9 21.6 12.9 23.8 27.1.8 5.2 3.8 6.3 7.5 2.7 3.8-3.7 7.4-7.7 10.3-12.2 14.9-23 26.8-47.5 34-74.3h6.7c.1 1.4.4 2.9.4 4.3-1.1 48.9-10.4 95.9-32.1 140-10.2 20.7-23.7 39-42.3 53.1-24 18.3-51.4 24.3-81 21.8-56-4.7-91.5-36.5-113.6-85.9-12-26.8-18.6-55.2-21.9-84.2-1.7-14.5-2.1-29.2-3.1-43.8.1-1.7.2-3.4.2-5.4zm176.6 137.6c16.8-1.2 41.1-26.8 41.7-43.2.3-6.3-2.4-10.2-8.6-11.6-3.7-.8-7.6-1.2-11.4-1.2-25 0-49.9.1-74.9.1-8.3 0-16.7-.3-25 .1-4.4.2-9 .9-13.2 2.1-6.1 1.8-8.9 6.3-8.2 12.6.4 3.2 1.4 6.6 2.9 9.4 6.8 12.9 16.9 22.6 30 29 3 1.5 6.4 2.1 10.4 3.3-2.6-15.9-9.7-27.8-22.4-37.3H295c-10.2 10.9-17.8 22.1-20.4 36.7zM366 403.5c.5-.1 1.1 0 1.4-.3 15.7-12.3 34.2-15.6 53.4-16.7 7.6-.4 15.1-.9 23.2-1.4-.4 1.2-.4 1.8-.6 2-14.2 10.2-28.1 20.8-45.1 26.1-10 3.2-20.2 4.1-30.4 1.2-2.4-.7-4.5-2.4-6.7-3.7 1.4-2 2.8-3.9 4.1-5.9.4-.5.7-1.1 1-1.6l-.3.3zM311.1 432.5c.8-.1 1.6-.2 2.3-.2 20.1-7.2 40.3-4.2 60.5-.3 6.6 1.3 13.2 2.7 20.7 4.2-1.2 1-1.5 1.6-2 1.7-18.1 6.2-36.1 12.6-55.8 10.7-9.3-.9-17.8-4-25.5-9.1-1.5-1-3.1-1.9-5-3.1 2.6-2.2 3.7-3.1 4.8-3.9zM439.2 141.6c-16.7-14.2-13.2-56.8-1.7-70.1 5.1 14.9 11.1 29.2 11.4 44.8.2 9.3-3.4 17.9-9.7 25.3zM413.7 94.3c-10.5-7.5-18.7-16.8-20.6-29.7-1.7-11.3-1.5-22.8-2.2-34.5 20 11.3 33.4 49 22.8 64.2z"/></svg>