<svg xmlns="http://www.w3.org/2000/svg" width="24" height="24" viewBox="0 0 24 24"><path d="M12 0C5.373 0 0 5.373 0 12s5.373 12 12 12 12-5.373 12-12S18.627 0 12 0zm2.218 18.616c-.354.07-.468-.15-.468-.336v-1.92c0-.654-.23-1.08-.48-1.297 1.56-.173 3.197-.765 3.197-3.454 0-.766-.273-1.39-.72-1.88.07-.177.31-.89-.07-1.853 0 0-.587-.188-1.923.717A6.8 6.8 0 0 0 12 8.36a6.743 6.743 0 0 0-1.753.235c-1.337-.905-1.925-.717-1.925-.717-.38.964-.14 1.676-.067 1.852a2.707 2.707 0 0 0-.722 1.88c0 2.68 1.634 3.28 3.19 3.458-.2.175-.382.483-.445.936-.4.18-1.413.488-2.037-.582 0 0-.37-.672-1.072-.722 0 0-.683-.01-.048.426 0 0 .46.215.777 1.024 0 0 .405 1.25 2.353.826v1.303c0 .184-.113.4-.462.336a7 7 0 1 1 4.43 0z"/></svg>